<svg width="1072" height="769" viewBox="0 0 1072 769" fill="none" xmlns="http://www.w3.org/2000/svg">
<path d="M536 769C832.025 769 1072 759.598 1072 748C1072 736.402 832.025 727 536 727C239.975 727 0 736.402 0 748C0 759.598 239.975 769 536 769Z" fill="#DEDAF2"/>
<path d="M218.629 629.347L212.069 603.475C200.438 598.546 188.538 594.276 176.426 590.687L175.598 602.711L172.24 589.464C157.219 585.17 147 583.281 147 583.281C147 583.281 160.8 635.77 189.754 675.898L223.488 681.824L197.281 685.603C200.923 689.985 204.837 694.134 209 698.025C251.115 737.117 298.024 755.053 313.773 738.085C329.522 721.117 308.148 675.673 266.033 636.585C252.977 624.466 236.576 614.741 220.158 607.085L218.629 629.347Z" fill="#3A96FF"/>
<path d="M281.015 601.245L288.773 575.707C281.365 565.475 273.386 555.669 264.873 546.336L257.949 556.201L261.921 543.125C251.28 531.689 243.509 524.79 243.509 524.79C243.509 524.79 228.194 576.857 232.234 626.174L258.049 648.684L233.657 638.372C234.51 644.007 235.718 649.583 237.271 655.066C253.117 710.3 284.002 749.901 306.254 743.517C328.506 737.133 333.7 687.182 317.854 631.948C312.942 614.825 303.928 598.022 293.831 582.983L281.015 601.245Z" fill="#3A96FF"/>
<path d="M666.751 176.983H662.659V64.883C662.659 56.3624 660.981 47.9253 657.72 40.0534C654.459 32.1814 649.68 25.0287 643.655 19.0038C637.63 12.9788 630.478 8.19959 622.606 4.93892C614.734 1.67824 606.297 0 597.776 0H360.269C343.061 0 326.558 6.83587 314.39 19.0038C302.222 31.1717 295.386 47.675 295.386 64.883V679.883C295.386 688.404 297.064 696.841 300.325 704.713C303.586 712.585 308.365 719.737 314.39 725.762C320.415 731.787 327.567 736.566 335.439 739.827C343.311 743.088 351.748 744.766 360.269 744.766H597.776C614.984 744.766 631.487 737.93 643.655 725.762C655.822 713.594 662.658 697.091 662.658 679.883V256.778H666.75L666.751 176.983Z" fill="#3F3D56"/>
<path d="M600.394 16.874H569.394C570.82 20.3696 571.364 24.1622 570.979 27.9177C570.593 31.6731 569.29 35.2762 567.184 38.4094C565.078 41.5426 562.234 44.1098 558.902 45.8848C555.57 47.6598 551.853 48.5882 548.078 48.588H412.013C408.238 48.5878 404.521 47.6593 401.189 45.8841C397.858 44.109 395.014 41.5418 392.908 38.4086C390.802 35.2754 389.5 31.6725 389.114 27.9172C388.729 24.1619 389.273 20.3695 390.699 16.874H361.743C348.892 16.874 336.568 21.979 327.481 31.0659C318.394 40.1528 313.289 52.4772 313.289 65.328V679.435C313.289 692.286 318.394 704.61 327.481 713.697C336.568 722.784 348.892 727.889 361.743 727.889H600.394C613.245 727.889 625.569 722.784 634.656 713.697C643.743 704.61 648.848 692.286 648.848 679.435V65.327C648.848 52.4764 643.743 40.1522 634.656 31.0655C625.569 21.9788 613.245 16.874 600.394 16.874Z" fill="white"/>
<path d="M450.658 261.503C450.657 257.21 451.787 252.993 453.934 249.276C456.081 245.559 459.169 242.473 462.888 240.329C459.171 238.182 454.955 237.052 450.663 237.052C446.37 237.051 442.154 238.18 438.436 240.326C434.719 242.472 431.632 245.559 429.486 249.276C427.34 252.993 426.21 257.209 426.21 261.502C426.21 265.794 427.34 270.01 429.486 273.727C431.632 277.444 434.719 280.531 438.436 282.677C442.154 284.823 446.37 285.952 450.663 285.952C454.955 285.951 459.171 284.821 462.888 282.674C459.17 280.53 456.081 277.445 453.935 273.728C451.788 270.012 450.657 265.795 450.658 261.503Z" fill="#CCCCCC"/>
<path d="M481.395 261.503C481.394 257.21 482.524 252.993 484.671 249.276C486.818 245.559 489.906 242.473 493.625 240.329C489.908 238.182 485.692 237.052 481.4 237.052C477.107 237.051 472.891 238.18 469.173 240.326C465.456 242.472 462.369 245.559 460.223 249.276C458.077 252.993 456.947 257.209 456.947 261.502C456.947 265.794 458.077 270.01 460.223 273.727C462.369 277.444 465.456 280.531 469.173 282.677C472.891 284.823 477.107 285.952 481.4 285.952C485.692 285.951 489.908 284.821 493.625 282.674C489.907 280.53 486.818 277.445 484.672 273.728C482.525 270.012 481.394 265.795 481.395 261.503Z" fill="#CCCCCC"/>
<path d="M511.434 285.952C524.937 285.952 535.884 275.005 535.884 261.502C535.884 247.999 524.937 237.052 511.434 237.052C497.931 237.052 486.984 247.999 486.984 261.502C486.984 275.005 497.931 285.952 511.434 285.952Z" fill="#3A96FF"/>
<path d="M552.296 337.869H409.796C408.439 337.867 407.139 337.328 406.18 336.369C405.22 335.409 404.681 334.109 404.679 332.752V190.252C404.681 188.895 405.22 187.595 406.18 186.635C407.139 185.676 408.439 185.137 409.796 185.135H552.296C553.653 185.137 554.953 185.676 555.913 186.635C556.872 187.595 557.411 188.895 557.413 190.252V332.752C557.411 334.109 556.872 335.409 555.913 336.369C554.953 337.328 553.653 337.867 552.296 337.869ZM409.796 187.183C408.982 187.184 408.202 187.508 407.626 188.083C407.051 188.659 406.727 189.439 406.726 190.253V332.753C406.727 333.567 407.051 334.347 407.626 334.923C408.202 335.499 408.982 335.822 409.796 335.823H552.296C553.11 335.822 553.89 335.499 554.466 334.923C555.042 334.347 555.365 333.567 555.366 332.753V190.253C555.365 189.439 555.042 188.659 554.466 188.083C553.89 187.508 553.11 187.184 552.296 187.183H409.796Z" fill="#CCCCCC"/>
<path d="M584.114 447.102H365.562V449.149H584.114V447.102Z" fill="#CCCCCC"/>
<path d="M372.464 434.322C376.276 434.322 379.366 431.232 379.366 427.42C379.366 423.608 376.276 420.518 372.464 420.518C368.652 420.518 365.562 423.608 365.562 427.42C365.562 431.232 368.652 434.322 372.464 434.322Z" fill="#3A96FF"/>
<path d="M584.114 516.118H365.562V518.165H584.114V516.118Z" fill="#CCCCCC"/>
<path d="M372.464 503.339C376.276 503.339 379.366 500.249 379.366 496.437C379.366 492.625 376.276 489.535 372.464 489.535C368.652 489.535 365.562 492.625 365.562 496.437C365.562 500.249 368.652 503.339 372.464 503.339Z" fill="#3A96FF"/>
<path d="M580.114 594.71H511.046C509.853 594.709 508.709 594.235 507.866 593.391C507.022 592.547 506.547 591.404 506.546 590.21V566.002C506.547 564.809 507.022 563.666 507.866 562.822C508.709 561.978 509.853 561.504 511.046 561.502H580.114C581.308 561.504 582.451 561.978 583.295 562.822C584.139 563.666 584.613 564.809 584.614 566.002V590.21C584.613 591.404 584.139 592.547 583.295 593.391C582.451 594.235 581.308 594.709 580.114 594.71Z" fill="#3A96FF"/>
<path d="M394.978 434.322C398.79 434.322 401.88 431.232 401.88 427.42C401.88 423.608 398.79 420.518 394.978 420.518C391.166 420.518 388.076 423.608 388.076 427.42C388.076 431.232 391.166 434.322 394.978 434.322Z" fill="#3A96FF"/>
<path d="M417.492 434.322C421.304 434.322 424.394 431.232 424.394 427.42C424.394 423.608 421.304 420.518 417.492 420.518C413.68 420.518 410.59 423.608 410.59 427.42C410.59 431.232 413.68 434.322 417.492 434.322Z" fill="#3A96FF"/>
<path d="M394.978 503.339C398.79 503.339 401.88 500.249 401.88 496.437C401.88 492.625 398.79 489.535 394.978 489.535C391.166 489.535 388.076 492.625 388.076 496.437C388.076 500.249 391.166 503.339 394.978 503.339Z" fill="#3A96FF"/>
<path d="M417.492 503.339C421.304 503.339 424.394 500.249 424.394 496.437C424.394 492.625 421.304 489.535 417.492 489.535C413.68 489.535 410.59 492.625 410.59 496.437C410.59 500.249 413.68 503.339 417.492 503.339Z" fill="#3A96FF"/>
<path d="M711.677 489.461C712.167 489.686 712.639 489.949 713.087 490.249L757.94 471.105L759.541 459.29L777.462 459.181L776.403 486.279L717.204 501.935C717.079 502.346 716.93 502.75 716.756 503.143C715.9 504.969 714.524 506.502 712.8 507.549C711.075 508.595 709.08 509.109 707.065 509.026C705.05 508.942 703.104 508.265 701.473 507.08C699.841 505.894 698.596 504.253 697.894 502.362C697.192 500.471 697.064 498.415 697.527 496.452C697.99 494.489 699.022 492.706 700.495 491.328C701.967 489.95 703.814 489.037 705.804 488.705C707.793 488.373 709.836 488.636 711.677 489.461Z" fill="#FFB8B8"/>
<path d="M783.98 735.021H771.72L765.888 687.733L783.982 687.734L783.98 735.021Z" fill="#FFB8B8"/>
<path d="M762.963 731.518H786.607V746.405H748.076C748.076 742.456 749.644 738.67 752.436 735.878C755.228 733.086 759.015 731.518 762.963 731.518Z" fill="#2F2E41"/>
<path d="M831.66 731.557L819.459 732.759L809.018 686.271L827.025 684.497L831.66 731.557Z" fill="#FFB8B8"/>
<path d="M810.401 730.131L833.931 727.813L835.391 742.629L797.045 746.406C796.854 744.46 797.047 742.496 797.615 740.625C798.182 738.754 799.113 737.013 800.353 735.502C801.593 733.991 803.119 732.739 804.843 731.817C806.567 730.896 808.456 730.323 810.401 730.131Z" fill="#2F2E41"/>
<path d="M787.393 409.135C800.957 409.135 811.954 398.138 811.954 384.574C811.954 371.009 800.957 360.013 787.393 360.013C773.828 360.013 762.831 371.009 762.831 384.574C762.831 398.138 773.828 409.135 787.393 409.135Z" fill="#FFB8B8"/>
<path d="M768.98 725.458C767.927 725.461 766.906 725.091 766.098 724.415C765.291 723.738 764.748 722.798 764.565 721.761C758.22 686.535 737.477 571.355 736.981 568.165C736.97 568.092 736.965 568.017 736.966 567.943V559.355C736.965 559.043 737.063 558.737 737.245 558.483L739.985 554.645C740.115 554.461 740.286 554.309 740.484 554.2C740.683 554.092 740.903 554.03 741.129 554.02C756.751 553.288 807.913 551.142 810.385 554.229C812.867 557.333 811.99 566.736 811.789 568.59L811.799 568.783L834.784 715.778C834.964 716.951 834.675 718.147 833.98 719.108C833.285 720.069 832.239 720.717 831.069 720.913L816.713 723.278C815.644 723.45 814.548 723.232 813.626 722.665C812.704 722.097 812.016 721.217 811.687 720.185C807.247 705.997 792.358 658.267 787.198 639.799C787.166 639.682 787.092 639.581 786.991 639.514C786.889 639.447 786.767 639.42 786.647 639.437C786.527 639.454 786.417 639.514 786.338 639.606C786.259 639.698 786.216 639.816 786.218 639.937C786.476 657.543 787.099 702.461 787.313 717.975L787.337 719.645C787.346 720.777 786.931 721.87 786.173 722.71C785.416 723.55 784.37 724.075 783.244 724.182L769.4 725.439C769.26 725.452 769.119 725.458 768.98 725.458Z" fill="#2F2E41"/>
<path d="M771.805 418.792C767.519 421.34 764.954 426.023 763.482 430.787C760.757 439.609 759.117 448.729 758.598 457.947L757.042 485.547L737.787 558.717C754.476 572.838 764.102 569.628 786.568 558.078C809.033 546.528 811.6 561.929 811.6 561.929L816.092 499.671L822.511 431.639C821.07 429.904 819.439 428.336 817.649 426.964C811.716 422.351 804.814 419.145 797.462 417.587C790.11 416.028 782.501 416.159 775.207 417.969L771.805 418.792Z" fill="#3A96FF"/>
<path d="M765.551 504.239C766.069 504.434 766.57 504.669 767.051 504.943L811.4 482.746L812.136 470.72L830.429 469.459L831.41 496.872L772.144 516.471C771.66 518.547 770.556 520.426 768.978 521.858C767.4 523.291 765.423 524.209 763.311 524.491C761.198 524.773 759.05 524.405 757.151 523.437C755.253 522.468 753.694 520.944 752.683 519.068C751.672 517.192 751.256 515.052 751.49 512.934C751.724 510.815 752.598 508.819 753.995 507.209C755.392 505.599 757.246 504.453 759.31 503.922C761.374 503.392 763.551 503.502 765.551 504.239Z" fill="#FFB8B8"/>
<path d="M822.19 431.95C833.101 435.801 835.023 477.524 835.023 477.524C822.186 470.463 806.782 482.017 806.782 482.017C806.782 482.017 803.573 471.105 799.721 456.985C798.558 453.013 798.419 448.811 799.317 444.771C800.215 440.731 802.12 436.984 804.856 433.878C804.856 433.878 811.278 428.096 822.19 431.95Z" fill="#3A96FF"/>
<path d="M809.415 391.069C806.355 388.621 802.18 393.071 802.18 393.071L799.732 371.037C799.732 371.037 784.431 372.87 774.638 370.426C764.846 367.981 763.316 379.301 763.316 379.301C762.811 374.728 762.708 370.12 763.01 365.53C763.621 360.021 771.578 354.513 785.655 350.841C799.732 347.168 807.076 363.082 807.076 363.082C816.869 367.977 812.475 393.517 809.415 391.069Z" fill="#2F2E41"/>
</svg>
