<svg xmlns="http://www.w3.org/2000/svg" height="512" width="512" xmlns:v="https://vecta.io/nano"><path d="M120 256c0-25.367 6.99-49.13 19.13-69.477v-86.308H52.823C18.568 144.703 0 198.922 0 256s18.568 111.297 52.823 155.785h86.308v-86.308C126.99 305.13 120 281.367 120 256z" fill="#fbbd00"/><path d="M256 392l-60 60 60 60c57.08 0 111.297-18.568 155.785-52.823V372.96H325.57C305.044 385.147 281.18 392 256 392z" fill="#0f9d58"/><path d="M139.13 325.477l-86.308 86.308C59.605 420.593 67 429.028 74.98 437.02 123.333 485.37 187.62 512 256 512V392c-49.624 0-93.117-26.72-116.87-66.523z" fill="#31aa52"/><path d="M512 256a258.24 258.24 0 0 0-4.192-46.377l-2.25-12.3H256v120h121.452c-11.794 23.46-29.928 42.602-51.884 55.638l86.216 86.216c8.808-6.782 17.243-14.167 25.235-22.158C485.37 388.667 512 324.38 512 256z" fill="#3c79e6"/><path d="M352.167 159.833l10.606 10.606 84.853-84.852L437.02 74.98C388.668 26.63 324.38 0 256 0l-60 60 60 60c36.326 0 70.48 14.146 96.167 39.833z" fill="#cf2d48"/><path d="M256 120V0C187.62 0 123.333 26.63 74.98 74.98a259.85 259.85 0 0 0-22.158 25.235l86.308 86.308C162.883 146.72 206.376 120 256 120z" fill="#eb4132"/></svg>